<svg width="71" height="124" viewBox="0 0 71 124" fill="none" xmlns="http://www.w3.org/2000/svg">
<path d="M0 41V20.5L17 30.8824L0 41Z" fill="#01A2A7"/>
<path d="M17 31V10L35 21L17 31Z" fill="#36C5EF"/>
<path d="M35 41V21L17 30.8824L35 41Z" fill="#EBB22F"/>
<path d="M17 31V10L0 20.3765L17 31Z" fill="#EBB22F"/>
<path d="M35 21V0L17 10.3765L35 21Z" fill="#FF4B40"/>
<path d="M70.1311 40.8871L70.1311 20.5L52.9992 30.9944L70.1311 40.8871Z" fill="#EBB22F"/>
<path d="M53 31V10.5L35 21L53 31Z" fill="#36C5EF"/>
<path d="M35 41V21L53 30.8824L35 41Z" fill="#FF4B40"/>
<path d="M53 31V10L70 20.3765L53 31Z" fill="#FF4B40"/>
<path d="M35 21V0L53 10.3765L35 21Z" fill="#01A2A7"/>
<path d="M17 41V62L35 51.6235L17 41Z" fill="#36C5EF"/>
<path d="M17 41V62L0 51.6235L17 41Z" fill="#01A2A7"/>
<path d="M35 51V73L17 62.1294L35 51Z" fill="#EBB22F"/>
<path d="M53 41V62L35 51.6235L53 41Z" fill="#36C5EF"/>
<path d="M53 41V62L70 51.6235L53 41Z" fill="#01A2A7"/>
<path d="M35 51V73L53 62.1294L35 51Z" fill="#FF4B40"/>
<path d="M28.2188 106C28.2188 105.401 28.0104 105.076 27.5938 105.023C27.4635 104.997 27.3333 104.984 27.2031 104.984H25.9141L16.9297 82.5625H15.1719L6.46094 104.984H4V106H10.9922C10.9922 105.401 10.7969 105.076 10.4062 105.023C10.276 104.997 10.1458 104.984 10.0156 104.984H8.02344L10.9531 97.4062H19.0391L21.9688 104.984H19.3516V106H28.2188ZM18.5703 96.2734H11.3828L14.9766 86.9375L18.5703 96.2734ZM37.75 105.023H35.6406V80.6094H29.3516V81.5859H32.3203V102.719C32.3203 103.891 31.9688 104.594 31.2656 104.828C30.849 104.958 30.2109 105.023 29.3516 105.023V106H38.6875C38.6875 105.427 38.5052 105.115 38.1406 105.062C38.0104 105.036 37.8802 105.023 37.75 105.023ZM48.9609 105.023H47.125V89.3594H40.8359V90.3359H43.8047V102.719C43.8047 103.917 43.401 104.633 42.5938 104.867C42.2031 104.971 41.6172 105.023 40.8359 105.023V106H49.9375C49.9375 105.427 49.7422 105.115 49.3516 105.062C49.2474 105.036 49.1172 105.023 48.9609 105.023ZM47.5547 83.7734C47.5547 82.8359 47.138 82.1458 46.3047 81.7031C45.9661 81.5469 45.6276 81.4688 45.2891 81.4688C44.3255 81.4688 43.6354 81.8984 43.2188 82.7578C43.0625 83.0964 42.9844 83.4349 42.9844 83.7734C42.9844 84.763 43.4271 85.4661 44.3125 85.8828C44.625 86.013 44.9505 86.0781 45.2891 86.0781C46.2266 86.0781 46.9036 85.6484 47.3203 84.7891C47.4766 84.4505 47.5547 84.112 47.5547 83.7734ZM51.7734 90.375H54.5078V101.156C54.6901 104.568 56.2656 106.326 59.2344 106.43C61.6823 106.43 63.2057 104.958 63.8047 102.016C63.8047 101.99 63.8047 101.964 63.8047 101.938L62.75 101.742C62.2031 104.06 61.2656 105.232 59.9375 105.258C58.5573 105.206 57.8542 104.203 57.8281 102.25V90.375H63.7266V89.3984H57.8281V84.8672L54.5078 85.6875V89.3984H51.7734V90.375Z" fill="white"/>
</svg>
